<svg id="Layer_1" data-name="Layer 1" xmlns="http://www.w3.org/2000/svg" viewBox="0 0 66.644 43.641"><defs><style>.cls-1{fill:#ff536c;}.cls-2{fill:#19ca94;}</style></defs><title>feature-1</title><path class="cls-1" d="M16.329,0H64a2.467,2.467,0,0,1,2.648,2.232V37.94A2.467,2.467,0,0,1,64,40.171H16.329a2.467,2.467,0,0,1-2.648-2.232V2.232A2.467,2.467,0,0,1,16.329,0ZM40.321,19.378L23.341,7.226l-3.429,3.4L40.356,25.257l20.076-14.64L56.968,7.24,40.324,19.378h0Z"/><path class="cls-2" d="M26.609,23.405c-5.545,0-10.509,2.989-12.459,7.5l3.116,1.016c1.942-4.484,7.7-6.75,12.856-5.062,3.884,1.271,6.457,4.5,6.463,8.107,0,4.79-4.466,8.673-9.976,8.673H9.982C4.473,43.644,0,39.764,0,34.974c0-3.684,2.672-6.967,6.67-8.188C6.352,21.2,11.3,16.456,17.719,16.179c5.486-.236,10.416,2.894,11.826,7.509A15.273,15.273,0,0,0,26.609,23.405Z"/></svg>