<svg id="Layer_3" data-name="Layer 3" xmlns="http://www.w3.org/2000/svg" viewBox="0 0 218 61"><defs><style>.cls-1{fill:#ff556e;}.cls-2{fill:#39364e;}</style></defs><title>logo</title><rect class="cls-1" x="9.33" width="5.83" height="9.663" rx="2.908" ry="2.908"/><path class="cls-1" d="M46.991,6h-5.3V9.68a1.167,1.167,0,0,1-1.166,1.162H34.5A1.167,1.167,0,0,1,33.334,9.68V6H16.425V9.68a1.167,1.167,0,0,1-1.166,1.162H9.231A1.167,1.167,0,0,1,8.065,9.68V6H3.45A3.454,3.454,0,0,0,0,9.438V45.27a3.454,3.454,0,0,0,3.45,3.437H46.991a3.454,3.454,0,0,0,3.45-3.437V9.438A3.454,3.454,0,0,0,46.991,6ZM46.322,42.547a2.381,2.381,0,0,1-2.379,2.369H6.5a2.381,2.381,0,0,1-2.379-2.369V14.133h42.2V42.547Z"/><rect class="cls-1" x="34.6" width="5.83" height="9.663" rx="2.908" ry="2.908"/><path class="cls-1" d="M17.686,19.9H10.694a1.049,1.049,0,0,0-1.048,1.044v6a1.049,1.049,0,0,0,1.048,1.044h6.992a1.049,1.049,0,0,0,1.048-1.044v-6A1.049,1.049,0,0,0,17.686,19.9ZM17.4,26.694H10.982V21.2H17.4v5.494Z"/><path class="cls-1" d="M28.717,19.9H21.725a1.049,1.049,0,0,0-1.048,1.044v6a1.049,1.049,0,0,0,1.048,1.044h6.992a1.049,1.049,0,0,0,1.048-1.044v-6A1.049,1.049,0,0,0,28.717,19.9Zm-0.289,6.791H22.014V21.2h6.415v5.494Z"/><path class="cls-1" d="M39.748,19.9H32.756a1.049,1.049,0,0,0-1.048,1.044v6a1.049,1.049,0,0,0,1.048,1.044h6.992A1.049,1.049,0,0,0,40.8,26.948v-6A1.049,1.049,0,0,0,39.748,19.9Zm-0.289,6.791H33.045V21.2h6.415v5.494Z"/><path class="cls-1" d="M17.686,30.769H10.694a1.049,1.049,0,0,0-1.048,1.044v6a1.049,1.049,0,0,0,1.048,1.044h6.992a1.049,1.049,0,0,0,1.048-1.044v-6A1.049,1.049,0,0,0,17.686,30.769ZM17.4,37.56H10.982V32.067H17.4V37.56Z"/><path class="cls-1" d="M28.717,30.769H21.725a1.049,1.049,0,0,0-1.048,1.044v6a1.049,1.049,0,0,0,1.048,1.044h6.992a1.049,1.049,0,0,0,1.048-1.044v-6A1.049,1.049,0,0,0,28.717,30.769ZM28.428,37.56H22.014V32.067h6.415V37.56Z"/><path class="cls-1" d="M39.748,30.769H32.756a1.049,1.049,0,0,0-1.048,1.044v6a1.049,1.049,0,0,0,1.048,1.044h6.992A1.049,1.049,0,0,0,40.8,37.815v-6A1.049,1.049,0,0,0,39.748,30.769ZM39.459,37.56H33.045V32.067h6.415V37.56Z"/><path class="cls-2" d="M78.832,48.146a24.194,24.194,0,0,1-7.1-2.875,5.6,5.6,0,0,1-1.723-1.886,4.542,4.542,0,0,1-.6-2.214,4.291,4.291,0,0,1,1-2.843,3.2,3.2,0,0,1,2.587-1.189,5.118,5.118,0,0,1,2.652.793,21.317,21.317,0,0,0,5.741,2.378,28.179,28.179,0,0,0,7.4.925,13.386,13.386,0,0,0,6.605-1.321,4.14,4.14,0,0,0,2.29-3.768,3.726,3.726,0,0,0-1.226-2.808A9.439,9.439,0,0,0,93.3,31.453q-1.928-.726-5.244-1.719a69.44,69.44,0,0,1-8-2.808,14.19,14.19,0,0,1-5.309-4.067,10.691,10.691,0,0,1-2.22-7.007,12.492,12.492,0,0,1,2.387-7.569,15.282,15.282,0,0,1,6.767-5.057A27,27,0,0,1,91.908,1.443a33.863,33.863,0,0,1,9.16,1.189,18.635,18.635,0,0,1,6.767,3.238,4.078,4.078,0,0,1,1.658,3.438,4.4,4.4,0,0,1-1.059,2.91,3.421,3.421,0,0,1-2.722,1.256,5.015,5.015,0,0,1-2.787-.925,19.821,19.821,0,0,0-5.045-2.216,21.484,21.484,0,0,0-6.173-.893A12.428,12.428,0,0,0,85.173,10.9a4.519,4.519,0,0,0-2.36,4.032,3.868,3.868,0,0,0,1.3,2.975,10.164,10.164,0,0,0,3.251,1.95q1.961,0.763,5.412,1.751a63.968,63.968,0,0,1,7.831,2.744,14.269,14.269,0,0,1,5.207,3.935,10.161,10.161,0,0,1,2.16,6.741A12.2,12.2,0,0,1,102.823,45.5q-5.144,3.732-14.432,3.733A39.05,39.05,0,0,1,78.832,48.146Z"/><path class="cls-2" d="M141.084,15.589a4.848,4.848,0,0,1,3.181,1.157,3.6,3.6,0,0,1,1.4,2.875,4.4,4.4,0,0,1-.535,1.982L125.815,58.16a5.719,5.719,0,0,1-1.89,2.152,4.219,4.219,0,0,1-5.207-.463,3.753,3.753,0,0,1-1.264-2.883,5.046,5.046,0,0,1,.6-2.249l3.916-7.531-9.36-25.779a3.918,3.918,0,0,1,1.5-4.462,5.757,5.757,0,0,1,3.683-1.356,4.121,4.121,0,0,1,2.355.694,3.89,3.89,0,0,1,1.491,2.082l6.173,18.444,9.025-18.444A4.51,4.51,0,0,1,141.084,15.589Z"/><path class="cls-2" d="M179.113,18.4q2.787,3.01,2.787,8.825c0,0.925-.022,1.633-0.065,2.117l-1.2,15.006a4.98,4.98,0,0,1-1.626,3.438,5.463,5.463,0,0,1-3.748,1.253,4.846,4.846,0,0,1-3.581-1.253,4.066,4.066,0,0,1-1.064-3.438l1.194-14.611a6.89,6.89,0,0,0-1.026-4.89,4.789,4.789,0,0,0-4.018-1.654,6.337,6.337,0,0,0-4.91,1.95,8.631,8.631,0,0,0-2.058,5.323L158.67,44.345a4.98,4.98,0,0,1-1.626,3.438,5.367,5.367,0,0,1-3.683,1.253,4.846,4.846,0,0,1-3.581-1.253,4.233,4.233,0,0,1-1.129-3.438l1.923-24.262a4.478,4.478,0,0,1,1.658-3.306,5.869,5.869,0,0,1,3.851-1.256,4.376,4.376,0,0,1,3.284,1.192,3.958,3.958,0,0,1,1.032,3.171v0.067a11.34,11.34,0,0,1,4.445-3.37,14.9,14.9,0,0,1,6.038-1.192Q176.326,15.39,179.113,18.4Z"/><path class="cls-2" d="M195.537,47.22a13.989,13.989,0,0,1-5.974-5.554,16.361,16.361,0,0,1-2.09-8.362,19.685,19.685,0,0,1,2.187-9.519,15.049,15.049,0,0,1,6.308-6.213,20.412,20.412,0,0,1,9.689-2.181,24.232,24.232,0,0,1,5.936.694,16.9,16.9,0,0,1,4.612,1.818,3.2,3.2,0,0,1,1.361,1.455A4.572,4.572,0,0,1,218,21.339a4.474,4.474,0,0,1-.9,2.776,2.748,2.748,0,0,1-2.29,1.192,3.953,3.953,0,0,1-1.658-.4,14.378,14.378,0,0,0-6.967-1.851,7.662,7.662,0,0,0-6.206,2.644q-2.22,2.647-2.225,7.469a8.8,8.8,0,0,0,1.993,6.114,7.025,7.025,0,0,0,5.509,2.216,13.8,13.8,0,0,0,3.419-.4,14.69,14.69,0,0,0,3.284-1.321,4.124,4.124,0,0,1,1.858-.463,2.46,2.46,0,0,1,2.025.958,3.661,3.661,0,0,1,.762,2.348,4.846,4.846,0,0,1-.529,2.181,4.274,4.274,0,0,1-1.593,1.719,14.363,14.363,0,0,1-4.445,1.915,21.046,21.046,0,0,1-5.444.729A19.938,19.938,0,0,1,195.537,47.22Z"/></svg>